<svg xmlns="http://www.w3.org/2000/svg" version="1.1" xmlns:xlink="http://www.w3.org/1999/xlink" xmlns:svgjs="http://svgjs.dev/svgjs" width="1000" height="1000" viewBox="0 0 1000 1000"><rect width="1000" height="1000" fill="#ffffff"></rect><g transform="matrix(0.7,0,0,0.7,149.57575757575756,282.1265587044535)"><svg viewBox="0 0 396 247" data-background-color="#ffffff" preserveAspectRatio="xMidYMid meet" height="623" width="1000" xmlns="http://www.w3.org/2000/svg" xmlns:xlink="http://www.w3.org/1999/xlink"><g id="tight-bounds" transform="matrix(1,0,0,1,0.2400000000000091,-0.09999999999999432)"><svg viewBox="0 0 395.52 247.2" height="247.2" width="395.52"><g><svg></svg></g><g><svg viewBox="0 0 395.52 247.2" height="247.2" width="395.52"><g transform="matrix(1,0,0,1,39.55199999999999,81.94648684976147)"><svg viewBox="0 0 316.416 83.30702630047706" height="83.30702630047706" width="316.416"><g><svg viewBox="0 0 316.416 83.30702630047706" height="83.30702630047706" width="316.416"><g><svg viewBox="0 0 316.416 83.30702630047706" height="83.30702630047706" width="316.416"><g><svg viewBox="0 0 316.416 83.30702630047706" height="83.30702630047706" width="316.416"><g><svg viewBox="0 0 316.416 83.30702630047706" height="83.30702630047706" width="316.416"><g><svg viewBox="0 0 316.416 44.93182927802154" height="44.93182927802154" width="316.416"><g transform="matrix(1,0,0,1,0,0)"><svg width="316.416" viewBox="4.800000190734863 -35 250.67999267578125 35.599998474121094" height="44.93182927802154" data-palette-color="#ea9937"><path d="M4.8-34.5L6.85-34.5 6.85-5.65Q6.85-3.9 7.93-2.83 9-1.75 10.75-1.75L10.75-1.75 24.05-1.75 24.1-0.25Q20.7-0.05 17.25-0.03 13.8 0 10.4 0L10.4 0Q7.8 0 6.3-1.55 4.8-3.1 4.8-5.45L4.8-5.45 4.8-34.5ZM30.15-24.1L32.1-24.1 32.1 0 30.15 0 30.15-24.1ZM30.7-34.15L31.55-34.15Q32.35-34.15 32.35-33.35L32.35-33.35 32.35-30.35Q32.35-29.55 31.55-29.55L31.55-29.55 30.7-29.55Q29.9-29.55 29.9-30.35L29.9-30.35 29.9-33.35Q29.9-34.15 30.7-34.15L30.7-34.15ZM54.59-24.7L54.59-24.7Q61.09-24.7 61.09-18.1L61.09-18.1 61.09 0 59.09 0 59.09-17.7Q59.09-20.45 57.9-21.68 56.7-22.9 54.15-22.9L54.15-22.9Q51.5-22.9 49-21.7 46.5-20.5 43.09-18.15L43.09-18.15 43.05-19.8Q46.05-22.2 48.92-23.45 51.8-24.7 54.59-24.7ZM41.34-24.1L42.95-24.1 43.15-19.65 43.3-18.85 43.3 0 41.34 0 41.34-24.1ZM84.84-24.1L87.29-24.1 78.64-14.9Q78.39-14.65 77.99-14.3 77.59-13.95 77.34-13.75L77.34-13.75 77.34-13.65Q77.59-13.45 77.99-13.03 78.39-12.6 78.64-12.2L78.64-12.2 88.09 0 85.69 0 75.04-13.85 84.84-24.1ZM69.94-35L71.94-35 71.99-18.65Q71.99-17.3 71.94-16.2 71.89-15.1 71.69-13.75L71.69-13.75Q71.84-12.4 71.89-11.18 71.94-9.95 71.94-8.7L71.94-8.7 71.94 0 69.94 0 69.94-35ZM70.99-14.55L76.69-14.55 76.69-12.95 70.99-12.95 70.99-14.55ZM102.64-24.7L102.64-24.7Q107.54-24.7 109.92-22.93 112.29-21.15 112.34-17.6L112.34-17.6Q112.44-14.4 111.22-12.73 109.99-11.05 107.04-11.05L107.04-11.05 93.04-11.05 93.04-12.7 106.74-12.7Q108.79-12.7 109.59-14 110.39-15.3 110.29-17.5L110.29-17.5Q110.24-20.35 108.39-21.63 106.54-22.9 102.74-22.9L102.74-22.9Q99.54-22.9 97.67-21.9 95.79-20.9 94.99-18.55 94.19-16.2 94.19-12.25L94.19-12.25Q94.19-8.05 95.12-5.63 96.04-3.2 98.07-2.2 100.09-1.2 103.29-1.2L103.29-1.2Q105.64-1.2 107.82-1.4 109.99-1.6 111.54-1.8L111.54-1.8 111.79-0.4Q110.89-0.1 109.34 0.13 107.79 0.35 106.09 0.48 104.39 0.6 103.04 0.6L103.04 0.6Q99.14 0.6 96.74-0.68 94.34-1.95 93.22-4.75 92.09-7.55 92.09-12.15L92.09-12.15Q92.09-16.8 93.17-19.55 94.24-22.3 96.57-23.5 98.89-24.7 102.64-24.7ZM127.54-24.7L127.54-24.7Q129.99-24.7 132.41-24.03 134.84-23.35 137.39-22.2L137.39-22.2 137.29-20.65Q134.44-21.75 132.26-22.33 130.09-22.9 127.79-22.9L127.79-22.9Q125.29-22.9 123.74-21.9 122.19-20.9 121.46-18.5 120.74-16.1 120.74-12.1L120.74-12.1Q120.74-8.05 121.44-5.68 122.14-3.3 123.69-2.25 125.24-1.2 127.74-1.2L127.74-1.2Q129.29-1.2 130.71-1.7 132.14-2.2 133.74-3.23 135.34-4.25 137.29-5.85L137.29-5.85 137.34-4.1Q134.84-1.9 132.41-0.65 129.99 0.6 127.34 0.6L127.34 0.6Q122.69 0.6 120.69-2.4 118.69-5.4 118.69-12.05L118.69-12.05Q118.69-16.65 119.59-19.43 120.49-22.2 122.44-23.45 124.39-24.7 127.54-24.7ZM136.99-35L138.99-35 138.99 0 137.49 0 137.19-4.2 136.99-4.45 136.99-21.3 137.19-22.1Q137.04-23.4 137.01-24.5 136.99-25.6 136.99-26.95L136.99-26.95 136.99-35ZM171.53-34.95L171.53-34.95Q175.08-34.95 177.51-34.02 179.93-33.1 181.43-31.03 182.93-28.95 183.63-25.58 184.33-22.2 184.33-17.25L184.33-17.25Q184.33-12.35 183.63-8.95 182.93-5.55 181.43-3.48 179.93-1.4 177.51-0.48 175.08 0.45 171.53 0.45L171.53 0.45Q168.18 0.45 165.31 0.33 162.43 0.2 159.88 0L159.88 0 160.83-1.55Q163.18-1.5 165.78-1.45 168.38-1.4 171.53-1.4L171.53-1.4Q175.48-1.4 177.81-2.9 180.13-4.4 181.16-7.88 182.18-11.35 182.18-17.25L182.18-17.25Q182.18-23.15 181.16-26.63 180.13-30.1 177.81-31.6 175.48-33.1 171.53-33.1L171.53-33.1Q168.38-33.1 165.78-33.05 163.18-33 160.73-32.95L160.73-32.95 159.88-34.5Q162.43-34.7 165.33-34.83 168.23-34.95 171.53-34.95ZM159.88-34.5L161.93-34.5 161.93 0 159.88 0 159.88-34.5ZM203.53-24.7L203.53-24.7Q205.78-24.7 207.38-24 208.98-23.3 209.81-21.78 210.63-20.25 210.63-17.7L210.63-17.7 210.63 0 209.13 0 208.73-5.3 208.63-5.65 208.63-17.7Q208.63-20 207.53-21.45 206.43-22.9 203.28-22.9L203.28-22.9Q200.78-22.9 197.86-22.68 194.93-22.45 192.23-22.15L192.23-22.15 192.03-23.65Q193.63-23.9 195.41-24.13 197.18-24.35 199.21-24.53 201.23-24.7 203.53-24.7ZM197.03-14.65L209.38-14.65 209.33-13.05 197.23-12.9Q195.13-12.85 194.11-11.8 193.08-10.75 193.08-8.75L193.08-8.75 193.08-6.05Q193.08-3.8 194.26-2.68 195.43-1.55 197.78-1.5L197.78-1.5Q199.58-1.45 201.68-2.13 203.78-2.8 205.78-4 207.78-5.2 209.18-6.65L209.18-6.65 209.18-4.9Q208.48-4.1 207.28-3.23 206.08-2.35 204.53-1.53 202.98-0.7 201.21-0.18 199.43 0.35 197.58 0.35L197.58 0.35Q195.58 0.35 194.11-0.38 192.63-1.1 191.83-2.5 191.03-3.9 191.03-5.9L191.03-5.9 191.03-8.9Q191.03-11.65 192.61-13.15 194.18-14.65 197.03-14.65L197.03-14.65ZM220.93-31.55L222.93-31.55 222.93-5.3Q222.93-3.35 223.9-2.43 224.88-1.5 226.78-1.5L226.78-1.5 230.98-1.5 231.23-0.05Q230.53 0.05 229.63 0.15 228.73 0.25 227.93 0.3 227.13 0.35 226.63 0.35L226.63 0.35Q223.83 0.35 222.38-1.05 220.93-2.45 220.93-5.1L220.93-5.1 220.93-31.55ZM221.28-24.1L231.53-24.1 231.53-22.4 216.58-22.4 216.58-23.85 221.28-24.1ZM248.38-24.7L248.38-24.7Q250.63-24.7 252.23-24 253.83-23.3 254.65-21.78 255.48-20.25 255.48-17.7L255.48-17.7 255.48 0 253.98 0 253.58-5.3 253.48-5.65 253.48-17.7Q253.48-20 252.38-21.45 251.28-22.9 248.13-22.9L248.13-22.9Q245.63-22.9 242.7-22.68 239.78-22.45 237.08-22.15L237.08-22.15 236.88-23.65Q238.48-23.9 240.25-24.13 242.03-24.35 244.05-24.53 246.08-24.7 248.38-24.7ZM241.88-14.65L254.23-14.65 254.18-13.05 242.08-12.9Q239.98-12.85 238.95-11.8 237.93-10.75 237.93-8.75L237.93-8.75 237.93-6.05Q237.93-3.8 239.1-2.68 240.28-1.55 242.63-1.5L242.63-1.5Q244.43-1.45 246.53-2.13 248.63-2.8 250.63-4 252.63-5.2 254.03-6.65L254.03-6.65 254.03-4.9Q253.33-4.1 252.13-3.23 250.93-2.35 249.38-1.53 247.83-0.7 246.05-0.18 244.28 0.35 242.43 0.35L242.43 0.35Q240.43 0.35 238.95-0.38 237.48-1.1 236.68-2.5 235.88-3.9 235.88-5.9L235.88-5.9 235.88-8.9Q235.88-11.65 237.45-13.15 239.03-14.65 241.88-14.65L241.88-14.65Z" opacity="1" transform="matrix(1,0,0,1,0,0)" fill="#ea9937" class="undefined-text-0" data-fill-palette-color="primary" id="text-0"></path></svg></g></svg></g><g transform="matrix(1,0,0,1,0,55.53915580665975)"><svg viewBox="0 0 316.416 27.76787049381731" height="27.76787049381731" width="316.416"><g transform="matrix(1,0,0,1,0,0)"><svg width="316.416" viewBox="3.5 -35 410.2200012207031 36" height="27.76787049381731" data-palette-color="#ea9937"><path d="M10.5-3.5L16.75-3.5Q18.45-3.5 19.88-4.03 21.3-4.55 22.33-5.7 23.35-6.85 23.93-8.65 24.5-10.45 24.5-13L24.5-13Q24.5-15.55 23.93-17.35 23.35-19.15 22.33-20.3 21.3-21.45 19.88-21.98 18.45-22.5 16.75-22.5L16.75-22.5 10.5-22.5 10.5-3.5ZM16.75 0L3.5 0 3.5-35 10.5-35 10.5-26 16.75-26Q20.2-26 23.03-25.1 25.85-24.2 27.85-22.5 29.85-20.8 30.93-18.4 32-16 32-13L32-13Q32-10 30.93-7.6 29.85-5.2 27.85-3.5 25.85-1.8 23.03-0.9 20.2 0 16.75 0L16.75 0ZM88.95-26L88.95-22.5 82.95-22.5Q79.55-22.5 77.75-20.68 75.95-18.85 75.95-15.25L75.95-15.25 75.95 0 68.95 0 68.95-15.25Q68.95-20.35 72.18-23.18 75.4-26 81.45-26L81.45-26 88.95-26ZM136.91-2.25L136.91-2.25Q138.51-2.25 139.91-2.85 141.31-3.45 142.36-4.73 143.41-6 144.03-8.05 144.66-10.1 144.66-13L144.66-13Q144.66-15.9 144.03-17.95 143.41-20 142.36-21.28 141.31-22.55 139.91-23.15 138.51-23.75 136.91-23.75L136.91-23.75Q135.31-23.75 133.91-23.15 132.51-22.55 131.46-21.28 130.41-20 129.78-17.95 129.16-15.9 129.16-13L129.16-13Q129.16-10.1 129.78-8.05 130.41-6 131.46-4.73 132.51-3.45 133.91-2.85 135.31-2.25 136.91-2.25ZM136.91-27L136.91-27Q140.26-27 143.08-26.08 145.91-25.15 147.91-23.38 149.91-21.6 151.03-18.98 152.16-16.35 152.16-13L152.16-13Q152.16-9.6 151.03-7 149.91-4.4 147.91-2.63 145.91-0.85 143.08 0.08 140.26 1 136.91 1L136.91 1Q133.51 1 130.71 0.08 127.91-0.85 125.91-2.63 123.91-4.4 122.78-7 121.66-9.6 121.66-13L121.66-13Q121.66-16.35 122.78-18.98 123.91-21.6 125.91-23.38 127.91-25.15 130.71-26.08 133.51-27 136.91-27ZM212.36-23.5L217.36-4.75 217.86-4.75 223.61-26 230.86-26 223.86 0 213.36 0 208.61-18 208.11-18 203.36 0 192.86 0 185.86-26 193.11-26 198.86-4.75 199.36-4.75 204.36-23.5 212.36-23.5ZM272.81-20.5L272.81-20.5Q272.81-19.35 273.84-18.4 274.86-17.45 277.31-16.75L277.31-16.75 285.06-14.5Q288.66-13.45 290.61-11.65 292.56-9.85 292.56-7L292.56-7Q292.56-5.2 291.81-3.73 291.06-2.25 289.36-1.2 287.66-0.15 284.96 0.43 282.26 1 278.31 1L278.31 1Q276.26 1 274.29 0.7 272.31 0.4 270.54-0.13 268.76-0.65 267.31-1.33 265.86-2 264.81-2.75L264.81-2.75 266.81-5.75Q268.91-4.45 271.74-3.48 274.56-2.5 278.31-2.5L278.31-2.5Q282.06-2.5 283.56-3.5 285.06-4.5 285.06-6L285.06-6Q285.06-7.15 284.01-8.08 282.96-9 280.31-9.75L280.31-9.75 272.56-12Q269.36-12.95 267.34-14.73 265.31-16.5 265.31-19.5L265.31-19.5Q265.31-21.1 266.04-22.48 266.76-23.85 268.31-24.85 269.86-25.85 272.26-26.43 274.66-27 278.06-27L278.06-27Q282.21-27 285.59-25.88 288.96-24.75 291.06-23.25L291.06-23.25 289.06-20.25Q287.01-21.55 284.41-22.53 281.81-23.5 278.06-23.5L278.06-23.5Q275.41-23.5 274.11-22.65 272.81-21.8 272.81-20.5ZM344.02-2.5L344.02-2.5Q346.47-2.5 348.59-3.35 350.72-4.2 352.77-5.75L352.77-5.75 354.77-2.75Q353.82-1.9 352.54-1.2 351.27-0.5 349.79-0.03 348.32 0.45 346.72 0.73 345.12 1 343.52 1L343.52 1Q339.97 1 337.04 0.08 334.12-0.85 332.07-2.63 330.02-4.4 328.89-7 327.77-9.6 327.77-13L327.77-13Q327.77-16.35 328.84-18.98 329.92-21.6 331.84-23.38 333.77-25.15 336.42-26.08 339.07-27 342.27-27L342.27-27Q345.27-27 347.92-26.1 350.57-25.2 352.52-23.48 354.47-21.75 355.62-19.3 356.77-16.85 356.77-13.75L356.77-13.75 356.77-10.25 335.42-10.25Q336.02-6.1 338.29-4.3 340.57-2.5 344.02-2.5ZM342.27-23.75L342.27-23.75Q340.82-23.75 339.57-23.2 338.32-22.65 337.39-21.45 336.47-20.25 335.89-18.35 335.32-16.45 335.27-13.75L335.27-13.75 349.27-13.75Q349.27-16.35 348.67-18.25 348.07-20.15 347.09-21.38 346.12-22.6 344.84-23.18 343.57-23.75 342.27-23.75ZM413.72-26L413.72-22.5 407.72-22.5Q404.32-22.5 402.52-20.68 400.72-18.85 400.72-15.25L400.72-15.25 400.72 0 393.72 0 393.72-15.25Q393.72-20.35 396.95-23.18 400.17-26 406.22-26L406.22-26 413.72-26Z" opacity="1" transform="matrix(1,0,0,1,0,0)" fill="#ea9937" class="undefined-text-1" data-fill-palette-color="secondary" id="text-1"></path></svg></g></svg></g></svg></g></svg></g></svg></g></svg></g></svg></g><g mask="url(#93662392-84a4-4494-95bd-1c53bcbbcec6)"><g transform="matrix(3.1844155844155844, 0, 0, 3.1844155844155844, 58.60104867910408, 1)"><svg xmlns="http://www.w3.org/2000/svg" xmlns:xlink="http://www.w3.org/1999/xlink" version="1.1" x="0" y="0" viewBox="6.300000190734863 11.5 87.39999389648438 77" style="enable-background:new 0 0 100 100;" xml:space="preserve" height="77" width="87.39999389648438" class="icon-none" data-fill-palette-color="accent" id="none"><path d="M72.3 12.3L72.3 12.3 72.3 12.3l-0.4-0.8H28.2L6.3 50l21.8 38.5h43.7L93.7 50 72.3 12.3zM33.3 25.3L9.9 47.7l18.6-32.8L33.3 25.3zM70.7 14.8l6.4 35.7L36.9 25.8 70.7 14.8zM35.5 27.3l41 25.2-41 23.3V27.3zM77 54.5l-7.2 30.8-32.6-8.1L77 54.5zM33.5 75L9.9 50.5l23.6-22.7V75zM33.2 77.6l-4.6 7.7L11.5 55.1 33.2 77.6zM35 78.6l31.4 7.9H30.2L35 78.6zM79.3 53.3l11.6-2.5L72.1 84 79.3 53.3zM90.7 48.9l-11.4 2.5-5.9-33.1L90.7 48.9zM35 24.3l-5-10.8h38.2L35 24.3z" fill="#ea9937" data-fill-palette-color="accent"></path></svg></g></g></svg></g><defs><mask id="89b5d7b6-a679-46e2-a3af-89debf074aa0"><rect width="640" height="400" fill="white"></rect><rect width="348.05760000000004" height="104.52167935775348" fill="black" x="145.97119999999998" y="147.73916032112325" id="transform-me" transform="matrix(1,0,0,1,-122.24000000000001,-76.4)"></rect></mask><mask id="57773275-912d-460f-b0e9-55d54361e8b4"><rect width="640" height="400" fill="white"></rect><rect width="348.05760000000004" height="104.52167935775348" fill="black" x="145.97119999999998" y="147.73916032112325" id="transform-me" transform="matrix(1,0,0,1,-122.24000000000001,-76.4)"></rect></mask><mask id="c8bbb7d6-6998-4490-afe2-17a8bf6b2389"><rect width="640" height="400" fill="white"></rect><rect width="348.05760000000004" height="104.52167935775348" fill="black" x="145.97119999999998" y="147.73916032112325" id="transform-me" transform="matrix(1,0,0,1,-122.24000000000001,-76.4)"></rect></mask><mask id="2ada1cf9-a88e-441b-8273-1f4894c76b94"><rect width="640" height="400" fill="white"></rect><rect width="348.05760000000004" height="104.52167935775348" fill="black" x="145.97119999999998" y="147.73916032112325" id="transform-me" transform="matrix(1,0,0,1,-122.24000000000001,-76.4)"></rect></mask><mask id="0898231e-bad4-4a35-880a-ed739b3804b3"><rect width="640" height="400" fill="white"></rect><rect width="348.05760000000004" height="104.52167935775348" fill="black" x="145.97119999999998" y="147.73916032112325" id="transform-me" transform="matrix(1,0,0,1,-122.24000000000001,-76.4)"></rect></mask><mask id="93662392-84a4-4494-95bd-1c53bcbbcec6"><rect width="640" height="400" fill="white"></rect><rect width="348.05760000000004" height="104.52167935775348" fill="black" x="145.97119999999998" y="147.73916032112325" id="transform-me" transform="matrix(1,0,0,1,-122.24000000000001,-76.4)"></rect></mask></defs></svg><rect width="395.52" height="247.2" fill="none" stroke="none" visibility="hidden"></rect></g></svg></g></svg>